<svg xmlns="http://www.w3.org/2000/svg" viewBox="0 0 48 48"><defs><style>.cls-1{fill:#7c7d7d;}.cls-2{fill:#919191;}.cls-3{fill:#dad7e5;}.cls-4{fill:#edebf2;}.cls-5{fill:#374f68;}.cls-6{fill:#425b72;}</style></defs><title>Setting (Gear wrench)</title><g id="Setting_Gear_wrench_" data-name="Setting (Gear wrench)"><path class="cls-1" d="M47,20.85v4.3c0,2.15-4.44-.14-6.29,4.31a5,5,0,0,0,.52,4.95C43,36.82,43.13,36,39,40.08a1,1,0,0,1-1.28.11l-1.32-.94a5.11,5.11,0,0,0-8,3.31l-.27,1.6a1,1,0,0,1-1,.84h-4.3c-2.13,0,.15-4.46-4.31-6.29-3.13-1.28-3.38-1.91-7.48-6a16.65,16.65,0,0,1-1.77-3.24C7.49,25.08,3,27.24,3,25.15v-4.3c0-2,3.89-.07,6-3.73a5.22,5.22,0,0,0,.4-4.3C8.76,10.94,6.89,10,7.92,9L11,5.92c1.46-1.46,3.11,3.24,7.51,1.39S20.75,1,22.85,1h4.3C29.3,1,27,5.44,31.46,7.29,36.4,8.94,37.55,4.44,39,5.92l3,3.05c1.47,1.47-3.23,3.12-1.39,7.51a5.06,5.06,0,0,0,3.86,3.11l1.61.27A1,1,0,0,1,47,20.85Z"/><path class="cls-2" d="M47,20.85v4.3c0,2.15-4.44-.14-6.29,4.31-1.3,3.46.79,5.15,1.57,6.44a22,22,0,0,1-7.1,2.7,5,5,0,0,0-4.29.4A22,22,0,0,1,9,17.12a5.22,5.22,0,0,0,.4-4.3,22,22,0,0,1,2.7-7.1c1.38.83,3.26,2.9,6.38,1.59C22.91,5.54,20.75,1,22.85,1h4.3C29.3,1,27,5.44,31.46,7.29,36.4,8.94,37.55,4.44,39,5.92l3,3.05c1.47,1.47-3.23,3.12-1.39,7.51a5.06,5.06,0,0,0,3.86,3.11l1.61.27A1,1,0,0,1,47,20.85Z"/><path class="cls-3" d="M37,23A12,12,0,0,1,18.9,33.34L14.66,29.1A12,12,0,1,1,37,23Z"/><path class="cls-4" d="M37,23a12,12,0,0,1-2.57,7.43A12,12,0,0,1,17.57,13.57,12,12,0,0,1,37,23Z"/><path class="cls-5" d="M24.14,29.7a2.92,2.92,0,0,0-2.46.86L6.12,46.12a3,3,0,0,1-4.24-4.24L17.44,26.32a2.92,2.92,0,0,0,.86-2.46,7,7,0,0,1,9.26-7.66L23.8,20,25,23l3,1.2,3.76-3.76A7,7,0,0,1,24.14,29.7Z"/><path class="cls-6" d="M32.13,21.78a7,7,0,0,1-8,5.92,2.92,2.92,0,0,0-2.46.86L6.12,44.12A3,3,0,0,1,1.18,43c.31-.9-.68.26,16.26-16.68,1.28-1.3.78-2.56.78-3.32a7,7,0,0,1,9.34-6.8L23.8,20,25,23l3,1.2,3.76-3.76A6.4,6.4,0,0,1,32.13,21.78Z"/></g></svg>